<?xml version="1.0" encoding="UTF-8"?>
<svg version="1.1" xmlns="http://www.w3.org/2000/svg" width="253" height="246">
<path d="M0 0 C1.63955651 -0.00679671 3.27910537 -0.01571121 4.91864014 -0.02655029 C9.31684384 -0.04908697 13.71445261 -0.04062045 18.11266494 -0.02465487 C22.73473679 -0.01188497 27.35676195 -0.02376427 31.97883606 -0.03158569 C39.72442679 -0.04064024 47.4697778 -0.02879474 55.21533203 -0.00488281 C64.16461869 0.02242642 73.11333744 0.01342681 82.06261081 -0.01401484 C89.77000353 -0.03669892 97.4772254 -0.03991263 105.18464071 -0.02682149 C109.77836738 -0.01903668 114.37182672 -0.01796081 118.96553612 -0.03450394 C123.27428768 -0.04894304 127.58230387 -0.038938 131.89097595 -0.01003265 C133.47079561 -0.00342331 135.0506772 -0.00531703 136.63047218 -0.01634598 C138.78757949 -0.03001811 140.94233168 -0.0128726 143.09928894 0.01205444 C144.3054143 0.01393957 145.51153967 0.0158247 146.75421429 0.01776695 C150.84487028 0.82750268 152.34101112 2.45398 154.93286133 5.64697266 C155.56777954 7.92297363 155.56777954 7.92297363 155.57983398 10.26611328 C155.59559479 11.15053101 155.61135559 12.03494873 155.62759399 12.94616699 C155.61747284 13.88899536 155.60735168 14.83182373 155.59692383 15.80322266 C155.60170746 16.78311157 155.60649109 17.76300049 155.61141968 18.77258301 C155.61481573 20.84026702 155.60563396 22.90800494 155.5847168 24.97558594 C155.55794747 28.13679968 155.58447504 31.29446284 155.61645508 34.45556641 C155.61315093 36.46729298 155.60674459 38.47901734 155.59692383 40.49072266 C155.60704498 41.43355103 155.61716614 42.37637939 155.62759399 43.34777832 C155.55365066 47.49710966 155.24722881 50.078949 153.21484375 53.7512207 C147.94022727 56.797966 142.73422076 56.25936045 136.75708008 56.13525391 C135.47678421 56.12817917 134.19648834 56.12110443 132.87739563 56.11381531 C129.48540821 56.0947898 126.09450359 56.04573104 122.70294189 55.99029541 C119.23741567 55.93900469 115.77170802 55.91600595 112.3059082 55.89111328 C105.51393855 55.84025996 98.7249361 55.74239675 91.93286133 55.64697266 C91.93286133 65.21697266 91.93286133 74.78697266 91.93286133 84.64697266 C89.45786133 85.14197266 89.45786133 85.14197266 86.93286133 85.64697266 C86.93286133 76.73697266 86.93286133 67.82697266 86.93286133 58.64697266 C88.25286133 58.31697266 89.57286133 57.98697266 90.93286133 57.64697266 C90.93286133 56.98697266 90.93286133 56.32697266 90.93286133 55.64697266 C87.96286133 56.14197266 87.96286133 56.14197266 84.93286133 56.64697266 C84.60286133 66.54697266 84.27286133 76.44697266 83.93286133 86.64697266 C78.59952799 88.64697266 73.26619466 90.64697266 67.93286133 92.64697266 C66.93286133 91.64697266 66.93286133 91.64697266 66.81260681 89.62852478 C66.81482742 88.74250076 66.81704803 87.85647675 66.81933594 86.94360352 C66.81945679 85.92858765 66.81957764 84.91357178 66.81970215 83.86779785 C66.82481812 82.79332397 66.82993408 81.7188501 66.83520508 80.61181641 C66.83621216 79.62991333 66.83721924 78.64801025 66.83825684 77.63635254 C66.84350688 73.95238078 66.85746801 70.2684256 66.87036133 66.58447266 C66.89098633 58.35509766 66.91161133 50.12572266 66.93286133 41.64697266 C102.07786133 41.15197266 102.07786133 41.15197266 137.93286133 40.64697266 C138.95872849 36.54350401 139.08061606 32.83384367 139.05786133 28.64697266 C139.06172852 27.93541016 139.0655957 27.22384766 139.06958008 26.49072266 C139.06300727 22.96769707 138.79392782 20.09123863 137.93286133 16.64697266 C74.24286133 16.31697266 10.55286133 15.98697266 -55.06713867 15.64697266 C-55.06713867 14.32697266 -55.06713867 13.00697266 -55.06713867 11.64697266 C-48.93298896 9.73344365 -42.7834882 8.070859 -36.53464985 6.57681847 C-33.52195089 5.76893484 -30.6247095 4.80040255 -27.68721086 3.75844419 C-18.33777003 0.53661105 -9.82025156 -0.06962706 0 0 Z " fill="#4A74C5" transform="translate(75.067138671875,23.35302734375)"/>
<path d="M0 0 C0.09289648 8.35399521 0.16386382 16.70777271 0.20724869 25.06215763 C0.2280769 28.94193396 0.25630607 32.82135554 0.30175781 36.70092773 C0.34538759 40.44866331 0.36917293 44.1960588 0.37950897 47.94402885 C0.38686982 49.37012519 0.40124386 50.79620403 0.42292023 52.22215462 C0.62561583 66.11540025 0.62561583 66.11540025 -4 72 C-7.93626629 75.6482468 -10.93230965 77.10732096 -16.26855469 77.17700195 C-17.55569366 77.19625481 -17.55569366 77.19625481 -18.86883545 77.21589661 C-20.25634003 77.22697701 -20.25634003 77.22697701 -21.671875 77.23828125 C-22.62765442 77.246353 -23.58343384 77.25442474 -24.56817627 77.26274109 C-26.59230744 77.27657321 -28.61646185 77.28729926 -30.640625 77.29516602 C-33.72441265 77.31235736 -36.80712208 77.35624899 -39.890625 77.40039062 C-41.85936713 77.41051988 -43.82811837 77.41903525 -45.796875 77.42578125 C-46.71378113 77.44328934 -47.63068726 77.46079742 -48.57537842 77.47883606 C-54.59031455 77.4586258 -58.06844107 76.49472052 -63 73 C-66.69576376 69.01246541 -68.12901406 66.02590841 -68.11352539 60.62036133 C-68.11344986 59.73967484 -68.11337433 58.85898834 -68.11329651 57.95161438 C-68.10813522 57.00465195 -68.10297394 56.05768951 -68.09765625 55.08203125 C-68.0962413 54.10965012 -68.09482635 53.13726898 -68.09336853 52.13542175 C-68.08776817 49.02774996 -68.07521562 45.92015004 -68.0625 42.8125 C-68.05748505 40.70638125 -68.05292213 38.60026137 -68.04882812 36.49414062 C-68.03779862 31.32939936 -68.02053375 26.16471187 -68 21 C-65.54285453 20.16301614 -63.08441143 19.33027576 -60.625 18.5 C-59.92632812 18.26152344 -59.22765625 18.02304688 -58.5078125 17.77734375 C-53.2265625 16 -53.2265625 16 -51 16 C-51 30.52 -51 45.04 -51 60 C-40.11 59.67 -29.22 59.34 -18 59 C-17.67 41.18 -17.34 23.36 -17 5 C-2 0 -2 0 0 0 Z " fill="#4471C2" transform="translate(159,155)"/>
<path d="M0 0 C29.04 0 58.08 0 88 0 C88 20.13 88 40.26 88 61 C79 65 79 65 71 66 C71 48.84 71 31.68 71 14 C63.94044922 14.08701172 63.94044922 14.08701172 56.73828125 14.17578125 C53.75322066 14.20133501 50.76829528 14.22540466 47.78320312 14.24414062 C43.04699633 14.27400853 38.31127372 14.30930658 33.57543945 14.37719727 C29.75637198 14.43160179 25.9378238 14.46143786 22.11839867 14.47438622 C20.66270969 14.48361119 19.20704854 14.50162618 17.75158119 14.52865028 C15.70917421 14.56505743 13.66890097 14.56994116 11.6262207 14.56762695 C9.88415092 14.58428154 9.88415092 14.58428154 8.10688782 14.60127258 C3.86181602 13.77972851 2.44843063 12.5531878 0 9 C0 6.03 0 3.06 0 0 Z " fill="#4371C1" transform="translate(20,65)"/>
<path d="M0 0 C29.04 0 58.08 0 88 0 C88 0.66 88 1.32 88 2 C82.39 1.67 76.78 1.34 71 1 C71 5.29 71 9.58 71 14 C62.48101025 14.11304853 53.96260544 14.20474201 45.4430666 14.25906086 C41.48690697 14.28513382 37.53128795 14.32048809 33.57543945 14.37719727 C29.75637198 14.43160179 25.9378238 14.46143786 22.11839867 14.47438622 C20.66270969 14.48361119 19.20704854 14.50162618 17.75158119 14.52865028 C15.70917421 14.56505743 13.66890097 14.56994116 11.6262207 14.56762695 C9.88415092 14.58428154 9.88415092 14.58428154 8.10688782 14.60127258 C3.86181602 13.77972851 2.44843063 12.5531878 0 9 C0 6.03 0 3.06 0 0 Z " fill="#3264BC" transform="translate(20,65)"/>
<path d="M0 0 C0 24.42 0 48.84 0 74 C-2.475 74.99 -2.475 74.99 -5 76 C-5.66 75.67 -6.32 75.34 -7 75 C-6.83923477 74.48000427 -6.67846954 73.96000854 -6.51283264 73.42425537 C-5.85640325 70.32119141 -5.83520573 67.38467749 -5.79467773 64.21191406 C-5.78477814 63.53833359 -5.77487854 62.86475311 -5.76467896 62.17076111 C-5.73318342 59.95241771 -5.70835403 57.73405293 -5.68359375 55.515625 C-5.66301389 53.97433934 -5.64201715 52.4330592 -5.62062073 50.89178467 C-5.5655066 46.84108962 -5.51605046 42.79034453 -5.46777344 38.73956299 C-5.41748044 34.60367394 -5.36183513 30.46785728 -5.30664062 26.33203125 C-5.19918948 18.22141543 -5.09771572 10.11073893 -5 2 C-1.125 0 -1.125 0 0 0 Z " fill="#4372C2" transform="translate(167,152)"/>
<path d="M0 0 C0.33 0 0.66 0 1 0 C1.13489391 2.26921536 1.23193995 4.5407067 1.3125 6.8125 C1.37050781 8.07707031 1.42851563 9.34164062 1.48828125 10.64453125 C1 14 1 14 -1.23046875 15.875 C-3.71864344 16.8857113 -5.9968128 17.65915309 -8.625 18.1875 C-9.38039063 18.34605469 -10.13578125 18.50460938 -10.9140625 18.66796875 C-13 19 -13 19 -16 19 C-16 14.71 -16 10.42 -16 6 C-14.39318359 5.47599609 -14.39318359 5.47599609 -12.75390625 4.94140625 C-11.35671896 4.48192855 -9.95958635 4.02228454 -8.5625 3.5625 C-7.50192383 3.21735352 -7.50192383 3.21735352 -6.41992188 2.86523438 C-2.93693205 1.92578853 -2.93693205 1.92578853 0 0 Z " fill="#436CB8" transform="translate(107,141)"/>
<path d="M0 0 C0.33 0 0.66 0 1 0 C1.13489391 2.26921536 1.23193995 4.5407067 1.3125 6.8125 C1.37050781 8.07707031 1.42851562 9.34164062 1.48828125 10.64453125 C1 14 1 14 -1.33203125 16.01171875 C-4 17 -4 17 -7 16 C-7.33 16.66 -7.66 17.32 -8 18 C-10.64860427 18.59355614 -13.29197322 18.74209269 -16 19 C-16 14.71 -16 10.42 -16 6 C-14.39318359 5.47599609 -14.39318359 5.47599609 -12.75390625 4.94140625 C-11.35671896 4.48192855 -9.95958635 4.02228454 -8.5625 3.5625 C-7.50192383 3.21735352 -7.50192383 3.21735352 -6.41992188 2.86523438 C-2.93693205 1.92578853 -2.93693205 1.92578853 0 0 Z " fill="#426CBB" transform="translate(158,125)"/>
<path d="M0 0 C2.34894745 3.69004201 2.23059746 6.8671103 2.1953125 11.171875 C2.1924826 11.8542926 2.18965271 12.53671021 2.18673706 13.23980713 C2.17558098 15.41005307 2.15048557 17.57987971 2.125 19.75 C2.11496426 21.22525444 2.10583944 22.70051537 2.09765625 24.17578125 C2.07565687 27.78398942 2.04115883 31.39195375 2 35 C-0.475 35.495 -0.475 35.495 -3 36 C-3 27.09 -3 18.18 -3 9 C-1.68 8.67 -0.36 8.34 1 8 C1 7.34 1 6.68 1 6 C-0.65 6 -2.3 6 -4 6 C-4 4.35 -4 2.7 -4 1 C-2.68 0.67 -1.36 0.34 0 0 Z " fill="#4164A8" transform="translate(165,73)"/>
<path d="M0 0 C0 18.15 0 36.3 0 55 C-0.33 55 -0.66 55 -1 55 C-1.17025204 50.00555417 -1.3304669 45.01091262 -1.48217773 40.01586914 C-1.53489191 38.32372806 -1.59014622 36.6316638 -1.64819336 34.93969727 C-2.01427269 24.20879782 -1.96442753 13.70122355 -1 3 C-1.99 3.495 -1.99 3.495 -3 4 C-3 26.44 -3 48.88 -3 72 C-2.01 72 -1.02 72 0 72 C-0.33 72.99 -0.66 73.98 -1 75 C-2.9375 75.75 -2.9375 75.75 -5 76 C-5.66 75.67 -6.32 75.34 -7 75 C-6.83923477 74.48000427 -6.67846954 73.96000854 -6.51283264 73.42425537 C-5.85640325 70.32119141 -5.83520573 67.38467749 -5.79467773 64.21191406 C-5.78477814 63.53833359 -5.77487854 62.86475311 -5.76467896 62.17076111 C-5.73318342 59.95241771 -5.70835403 57.73405293 -5.68359375 55.515625 C-5.66301389 53.97433934 -5.64201715 52.4330592 -5.62062073 50.89178467 C-5.5655066 46.84108962 -5.51605046 42.79034453 -5.46777344 38.73956299 C-5.41748044 34.60367394 -5.36183513 30.46785728 -5.30664062 26.33203125 C-5.19918948 18.22141543 -5.09771572 10.11073893 -5 2 C-1.125 0 -1.125 0 0 0 Z " fill="#4467AD" transform="translate(167,152)"/>
<path d="M0 0 C0.66 0.33 1.32 0.66 2 1 C2.1269082 7.31692016 2.21439585 13.63351094 2.2746582 19.95141602 C2.29978285 22.09997849 2.33388861 24.24845565 2.37719727 26.39672852 C2.43793792 29.48735612 2.46623044 32.57685263 2.48828125 35.66796875 C2.51408768 36.62648239 2.5398941 37.58499603 2.56648254 38.57255554 C2.56842942 43.21507605 2.52024113 45.31023724 -0.34960938 49.11523438 C-3.4814799 51.34239359 -5.0185104 51.54105359 -8.8125 51.3125 C-9.78832031 51.26738281 -10.76414063 51.22226563 -11.76953125 51.17578125 C-12.87361328 51.08876953 -12.87361328 51.08876953 -14 51 C-12.515 50.505 -12.515 50.505 -11 50 C-11.495 48.515 -11.495 48.515 -12 47 C-11.67 46.01 -11.34 45.02 -11 44 C-10.34 44 -9.68 44 -9 44 C-8.67 45.32 -8.34 46.64 -8 48 C-7.01 47.01 -6.02 46.02 -5 45 C-4.34 45.33 -3.68 45.66 -3 46 C-2.67 45.34 -2.34 44.68 -2 44 C-1.01 44 -0.02 44 1 44 C0.83701416 42.85853516 0.67402832 41.71707031 0.50610352 40.54101562 C-0.04380736 36.12426925 -0.12840829 31.78956525 -0.09765625 27.34375 C-0.0962413 26.55601196 -0.09482635 25.76827393 -0.09336853 24.95666504 C-0.08782612 22.47106936 -0.07528485 19.98556789 -0.0625 17.5 C-0.05747754 15.80208465 -0.05291595 14.10416786 -0.04882812 12.40625 C-0.03787564 8.27079771 -0.02065166 4.13541476 0 0 Z " fill="#426AB1" transform="translate(228,28)"/>
<path d="M0 0 C0 2.64 0 5.28 0 8 C-0.66 7.67 -1.32 7.34 -2 7 C-2 5.68 -2 4.36 -2 3 C-2.75925781 3.2165625 -3.51851562 3.433125 -4.30078125 3.65625 C-5.29464844 3.9346875 -6.28851563 4.213125 -7.3125 4.5 C-8.79169922 4.91765625 -8.79169922 4.91765625 -10.30078125 5.34375 C-13 6 -13 6 -16 6 C-15.83250244 6.95592041 -15.66500488 7.91184082 -15.49243164 8.89672852 C-14.83890065 13.49913557 -14.97548338 18.01665089 -15.12109375 22.65234375 C-15.14470474 23.55247696 -15.16831573 24.45261017 -15.19264221 25.38002014 C-15.26873154 28.23269616 -15.35298868 31.08506232 -15.4375 33.9375 C-15.49077559 35.88084461 -15.54351554 37.82420399 -15.59570312 39.76757812 C-15.72427187 44.51191201 -15.86016239 49.25598543 -16 54 C-16.33 54 -16.66 54 -17 54 C-17 37.83 -17 21.66 -17 5 C-2 0 -2 0 0 0 Z " fill="#4266AA" transform="translate(159,155)"/>
<path d="M0 0 C0.66 0.33 1.32 0.66 2 1 C0.7934375 1.4021875 0.7934375 1.4021875 -0.4375 1.8125 C-3.34845114 4.29745829 -3.42920511 4.68862106 -3.8125 8.3125 C-4.02110603 12.38031761 -3.99992763 16.4400007 -3.9765625 20.51171875 C-3.97164795 21.49422607 -3.9667334 22.4767334 -3.96166992 23.48901367 C-3.94566527 25.48280524 -3.9173511 27.47653918 -3.8762207 29.4699707 C-3.86421631 30.39769287 -3.85221191 31.32541504 -3.83984375 32.28125 C-3.82300537 33.11720703 -3.80616699 33.95316406 -3.78881836 34.81445312 C-4 37 -4 37 -6 40 C-6 27.46 -6 14.92 -6 2 C-4.02 1.34 -2.04 0.68 0 0 Z " fill="#466BAD" transform="translate(97,174)"/>
<path d="M0 0 C1.12346384 3.75122671 1.35287413 7.47971257 1.625 11.375 C1.72039062 12.66148438 1.81578125 13.94796875 1.9140625 15.2734375 C1.9929665 18.69500203 1.69294577 21.65938084 1 25 C0.01 25 -0.98 25 -2 25 C-2.05786668 21.20839703 -2.09355054 17.41690689 -2.125 13.625 C-2.14175781 12.54476562 -2.15851563 11.46453125 -2.17578125 10.3515625 C-2.18222656 9.3203125 -2.18867188 8.2890625 -2.1953125 7.2265625 C-2.20578613 6.27346191 -2.21625977 5.32036133 -2.22705078 4.33837891 C-2 2 -2 2 0 0 Z " fill="#4570C2" transform="translate(165,82)"/>
<path d="M0 0 C0 4.62 0 9.24 0 14 C-1.65 14.33 -3.3 14.66 -5 15 C-5 10.71 -5 6.42 -5 2 C-1 0 -1 0 0 0 Z " fill="#4466AA" transform="translate(167,123)"/>
<path d="M0 0 C0.33 0 0.66 0 1 0 C1 14.85 1 29.7 1 45 C2.98 44.34 4.96 43.68 7 43 C9.875 42.875 9.875 42.875 12 43 C9.49751135 44.66832577 7.58850813 45.62381674 4.8125 46.625 C4.09707031 46.88539062 3.38164062 47.14578125 2.64453125 47.4140625 C2.10183594 47.60742188 1.55914062 47.80078125 1 48 C0 47 0 47 -0.12025452 45.09544373 C-0.11803391 44.26271439 -0.11581329 43.42998505 -0.11352539 42.57202148 C-0.11344986 41.63112167 -0.11337433 40.69022186 -0.11329651 39.72080994 C-0.10813522 38.69790359 -0.10297394 37.67499725 -0.09765625 36.62109375 C-0.0962413 35.57929459 -0.09482635 34.53749542 -0.09336853 33.46412659 C-0.0877508 30.12188906 -0.0751953 26.77971743 -0.0625 23.4375 C-0.05748728 21.17773534 -0.05292398 18.91796963 -0.04882812 16.65820312 C-0.03777561 11.10544609 -0.02102024 5.55272775 0 0 Z " fill="#4069B0" transform="translate(142,68)"/>
<path d="M0 0 C-5.02582006 2.26590052 -10.01156219 4.00180462 -15.3125 5.5 C-16.81129179 5.93066302 -18.30999013 6.36165139 -19.80859375 6.79296875 C-20.52644043 6.99841309 -21.24428711 7.20385742 -21.98388672 7.41552734 C-25.37725004 8.39926575 -28.74777767 9.45705184 -32.1171875 10.51953125 C-34 11 -34 11 -37 11 C-37 10.34 -37 9.68 -37 9 C-31.76228894 7.36611226 -26.52058676 5.85493914 -21.1875 4.5625 C-15.56996115 3.20001003 -10.10354517 1.48750416 -4.6171875 -0.328125 C-2 -1 -2 -1 0 0 Z " fill="#6179B4" transform="translate(57,26)"/>
<path d="M0 0 C2.05078125 0.03255208 4.1015625 0.06510417 6.15234375 0.09765625 C5.82234375 1.74765625 5.49234375 3.39765625 5.15234375 5.09765625 C0.44572865 5.94484697 -3.16889134 5.92943668 -7.84765625 5.09765625 C-10.1241637 5.45541765 -10.1241637 5.45541765 -11.84765625 6.09765625 C-12.17765625 5.43765625 -12.50765625 4.77765625 -12.84765625 4.09765625 C-12.13738281 3.89269531 -11.42710938 3.68773437 -10.6953125 3.4765625 C-9.77621094 3.20714844 -8.85710938 2.93773437 -7.91015625 2.66015625 C-6.53537109 2.25990234 -6.53537109 2.25990234 -5.1328125 1.8515625 C-2.90734384 1.11734805 -2.24814441 0.1188237 0 0 Z " fill="#5A80CB" transform="translate(58.84765625,24.90234375)"/>
<path d="M0 0 C-0.165 0.928125 -0.33 1.85625 -0.5 2.8125 C-1.07748388 5.95621353 -1.07748388 5.95621353 -1 9 C-3.375 8.8125 -3.375 8.8125 -6 8 C-7.25 5.5625 -7.25 5.5625 -8 3 C-8.33 2.34 -8.66 1.68 -9 1 C-5.64919071 -1.10976881 -3.77897651 -1.0497157 0 0 Z " fill="#4472C3" transform="translate(158,129)"/>
<path d="M0 0 C0.66 0 1.32 0 2 0 C2 0.66 2 1.32 2 2 C2.66 1.67 3.32 1.34 4 1 C5.99960012 0.960008 8.00047242 0.95653201 10 1 C10 2.65 10 4.3 10 6 C7.36 6 4.72 6 2 6 C1.34 7.32 0.68 8.64 0 10 C-0.95024979 6.30458414 -0.95024979 3.69541586 0 0 Z " fill="#4672C5" transform="translate(93,149)"/>
<path d="M0 0 C0.66 0 1.32 0 2 0 C2.33 1.32 2.66 2.64 3 4 C3.99 3.01 4.98 2.02 6 1 C6.66 1.33 7.32 1.66 8 2 C8.33 1.34 8.66 0.68 9 0 C9.66 0.33 10.32 0.66 11 1 C10.67 1.99 10.34 2.98 10 4 C9.34 4 8.68 4 8 4 C8 4.99 8 5.98 8 7 C4.37 7 0.74 7 -3 7 C-2.01 6.67 -1.02 6.34 0 6 C-0.33 5.01 -0.66 4.02 -1 3 C-0.67 2.01 -0.34 1.02 0 0 Z " fill="#3463B7" transform="translate(217,72)"/>
<path d="M0 0 C-0.66 0.66 -1.32 1.32 -2 2 C-1.34 2.66 -0.68 3.32 0 4 C-3.96 4 -7.92 4 -12 4 C-12 3.34 -12 2.68 -12 2 C-10.56656 1.46809459 -9.12804633 0.94984742 -7.6875 0.4375 C-6.48673828 0.00244141 -6.48673828 0.00244141 -5.26171875 -0.44140625 C-3 -1 -3 -1 0 0 Z " fill="#5578BE" transform="translate(32,35)"/>
<path d="M0 0 C0 4.62 0 9.24 0 14 C-0.99 14.495 -0.99 14.495 -2 15 C-3.0257259 10.58937864 -3.03684712 8.07369424 -1 4 C-2.32 4 -3.64 4 -5 4 C-5 3.34 -5 2.68 -5 2 C-1.125 0 -1.125 0 0 0 Z " fill="#4266A9" transform="translate(159,125)"/>
<path d="M0 0 C0.66 0 1.32 0 2 0 C2 2.64 2 5.28 2 8 C0.68 8.33 -0.64 8.66 -2 9 C-1.125 1.125 -1.125 1.125 0 0 Z " fill="#4172C5" transform="translate(164,126)"/>
<path d="M0 0 C0.33 0.66 0.66 1.32 1 2 C1.886875 1.67 2.77375 1.34 3.6875 1 C6.70923347 0.08777857 8.88373706 -0.18330958 12 0 C9.49751135 1.66832577 7.58850813 2.62381674 4.8125 3.625 C4.09707031 3.88539062 3.38164062 4.14578125 2.64453125 4.4140625 C2.10183594 4.60742188 1.55914062 4.80078125 1 5 C0.67 3.35 0.34 1.7 0 0 Z " fill="#4765A5" transform="translate(142,111)"/>
<path d="M0 0 C0.66 0 1.32 0 2 0 C2 0.66 2 1.32 2 2 C4.64 1.67 7.28 1.34 10 1 C9.67 1.99 9.34 2.98 9 4 C6.75 4.75 6.75 4.75 4 5 C1.6875 3.125 1.6875 3.125 0 1 C0 0.67 0 0.34 0 0 Z " fill="#3D63A8" transform="translate(21,74)"/>
<path d="M0 0 C0.33 0.99 0.66 1.98 1 3 C0.01 4.485 0.01 4.485 -1 6 C-1.99 6 -2.98 6 -4 6 C-4 4.35 -4 2.7 -4 1 C-2.68 0.67 -1.36 0.34 0 0 Z " fill="#3161B9" transform="translate(165,73)"/>
<path d="M0 0 C-0.33 0.66 -0.66 1.32 -1 2 C-3.06640625 2.6328125 -3.06640625 2.6328125 -5.5625 3.125 C-6.80193359 3.37636719 -6.80193359 3.37636719 -8.06640625 3.6328125 C-8.70449219 3.75398438 -9.34257812 3.87515625 -10 4 C-10 3.34 -10 2.68 -10 2 C-6.49223216 0.39644899 -3.85645121 -0.22036864 0 0 Z " fill="#8FB3CD" transform="translate(30,33)"/>
<path d="M0 0 C2.97 0.495 2.97 0.495 6 1 C5.67 1.99 5.34 2.98 5 4 C3.0625 4.75 3.0625 4.75 1 5 C0.34 4.67 -0.32 4.34 -1 4 C-0.67 2.68 -0.34 1.36 0 0 Z " fill="#425EAB" transform="translate(161,223)"/>
<path d="M0 0 C0.33 0 0.66 0 1 0 C1.49230769 7.38461538 1.49230769 7.38461538 -1 10.5 C-1.66 10.995 -2.32 11.49 -3 12 C-3.33 11.34 -3.66 10.68 -4 10 C-3.34 10 -2.68 10 -2 10 C-1.34 6.7 -0.68 3.4 0 0 Z " fill="#4363A2" transform="translate(229,66)"/>
</svg>
